
<svg width="100" height="100" viewBox="0 0 100 100" xmlns="http://www.w3.org/2000/svg">
  <circle cx="10" cy="10" r="2" fill="#d4af37" opacity="0.1"/>
  <circle cx="30" cy="10" r="2" fill="#d4af37" opacity="0.1"/>
  <circle cx="50" cy="10" r="2" fill="#d4af37" opacity="0.1"/>
  <circle cx="70" cy="10" r="2" fill="#d4af37" opacity="0.1"/>
  <circle cx="90" cy="10" r="2" fill="#d4af37" opacity="0.1"/>
  
  <circle cx="10" cy="30" r="2" fill="#d4af37" opacity="0.1"/>
  <circle cx="30" cy="30" r="2" fill="#d4af37" opacity="0.1"/>
  <circle cx="50" cy="30" r="2" fill="#d4af37" opacity="0.1"/>
  <circle cx="70" cy="30" r="2" fill="#d4af37" opacity="0.1"/>
  <circle cx="90" cy="30" r="2" fill="#d4af37" opacity="0.1"/>
  
  <circle cx="10" cy="50" r="2" fill="#d4af37" opacity="0.1"/>
  <circle cx="30" cy="50" r="2" fill="#d4af37" opacity="0.1"/>
  <circle cx="50" cy="50" r="2" fill="#d4af37" opacity="0.1"/>
  <circle cx="70" cy="50" r="2" fill="#d4af37" opacity="0.1"/>
  <circle cx="90" cy="50" r="2" fill="#d4af37" opacity="0.1"/>
  
  <circle cx="10" cy="70" r="2" fill="#d4af37" opacity="0.1"/>
  <circle cx="30" cy="70" r="2" fill="#d4af37" opacity="0.1"/>
  <circle cx="50" cy="70" r="2" fill="#d4af37" opacity="0.1"/>
  <circle cx="70" cy="70" r="2" fill="#d4af37" opacity="0.1"/>
  <circle cx="90" cy="70" r="2" fill="#d4af37" opacity="0.1"/>
  
  <circle cx="10" cy="90" r="2" fill="#d4af37" opacity="0.1"/>
  <circle cx="30" cy="90" r="2" fill="#d4af37" opacity="0.1"/>
  <circle cx="50" cy="90" r="2" fill="#d4af37" opacity="0.1"/>
  <circle cx="70" cy="90" r="2" fill="#d4af37" opacity="0.1"/>
  <circle cx="90" cy="90" r="2" fill="#d4af37" opacity="0.1"/>
</svg>
